<svg xmlns="http://www.w3.org/2000/svg" viewBox="0 0 32 32">
  <defs>
    <linearGradient id="g" x1="0" y1="0" x2="1" y2="1">
      <stop offset="0%" stop-color="#C16E7E"/>
      <stop offset="100%" stop-color="#9E4E63"/>
    </linearGradient>
  </defs>
  <g fill="url(#g)">
    <path d="M16 16 C 12.7 11.2, 12.7 6.4, 16 4.4 C 19.3 6.4, 19.3 11.2, 16 16 Z" transform="rotate(0 16 16)"/>
    <path d="M16 16 C 12.7 11.2, 12.7 6.4, 16 4.4 C 19.3 6.4, 19.3 11.2, 16 16 Z" transform="rotate(72 16 16)"/>
    <path d="M16 16 C 12.7 11.2, 12.7 6.4, 16 4.4 C 19.3 6.4, 19.3 11.2, 16 16 Z" transform="rotate(144 16 16)"/>
    <path d="M16 16 C 12.7 11.2, 12.7 6.4, 16 4.4 C 19.3 6.4, 19.3 11.2, 16 16 Z" transform="rotate(216 16 16)"/>
    <path d="M16 16 C 12.7 11.2, 12.7 6.4, 16 4.4 C 19.3 6.4, 19.3 11.2, 16 16 Z" transform="rotate(288 16 16)"/>
  </g>
  <circle cx="16" cy="16" r="2.6" fill="#fff"/>
  <circle cx="16" cy="16" r="1.4" fill="#9E4E63"/>
</svg>
